<mxfile host="app.diagrams.net" modified="2024-05-08T13:55:50.502Z" agent="Mozilla/5.0 (Windows NT 10.0; Win64; x64) AppleWebKit/537.36 (KHTML, like Gecko) Chrome/124.0.0.0 Safari/537.36 Edg/124.0.0.0" etag="rS4kaYWGv8ygCMljhTpm" version="24.3.1" type="github">
  <diagram name="第 1 页" id="nhmB7yt5LdD38RzxbvBd">
    <mxGraphModel dx="819" dy="473" grid="1" gridSize="10" guides="1" tooltips="1" connect="1" arrows="1" fold="1" page="1" pageScale="1" pageWidth="827" pageHeight="1169" math="0" shadow="0">
      <root>
        <mxCell id="0" />
        <mxCell id="1" parent="0" />
        <mxCell id="h80hUOPxb6vdxZd0wqWr-3" value="" style="whiteSpace=wrap;html=1;aspect=fixed;fillStyle=solid;fillColor=#663300;" vertex="1" parent="1">
          <mxGeometry x="40" y="290" width="240" height="240" as="geometry" />
        </mxCell>
      </root>
    </mxGraphModel>
  </diagram>
</mxfile>
